<svg id="visual" viewBox="0 0 900 600" width="900" height="600" xmlns="http://www.w3.org/2000/svg" xmlns:xlink="http://www.w3.org/1999/xlink" version="1.1"><rect x="0" y="0" width="900" height="600" fill="#f2faff"></rect><path d="M0 154L25 175.5C50 197 100 240 150 230.7C200 221.3 250 159.7 300 162.5C350 165.3 400 232.7 450 259.3C500 286 550 272 600 255C650 238 700 218 750 211C800 204 850 210 875 213L900 216L900 601L875 601C850 601 800 601 750 601C700 601 650 601 600 601C550 601 500 601 450 601C400 601 350 601 300 601C250 601 200 601 150 601C100 601 50 601 25 601L0 601Z" fill="#dff2ff"></path><path d="M0 314L25 310.8C50 307.7 100 301.3 150 282.2C200 263 250 231 300 236.5C350 242 400 285 450 288.5C500 292 550 256 600 254.2C650 252.3 700 284.7 750 290C800 295.3 850 273.7 875 262.8L900 252L900 601L875 601C850 601 800 601 750 601C700 601 650 601 600 601C550 601 500 601 450 601C400 601 350 601 300 601C250 601 200 601 150 601C100 601 50 601 25 601L0 601Z" fill="#d6e9ff"></path><path d="M0 397L25 382.2C50 367.3 100 337.7 150 323.8C200 310 250 312 300 320.8C350 329.7 400 345.3 450 361.3C500 377.3 550 393.7 600 388.5C650 383.3 700 356.7 750 355.8C800 355 850 380 875 392.5L900 405L900 601L875 601C850 601 800 601 750 601C700 601 650 601 600 601C550 601 500 601 450 601C400 601 350 601 300 601C250 601 200 601 150 601C100 601 50 601 25 601L0 601Z" fill="#d2dffd"></path><path d="M0 561L25 539.8C50 518.7 100 476.3 150 468.7C200 461 250 488 300 503C350 518 400 521 450 519.8C500 518.7 550 513.3 600 522C650 530.7 700 553.3 750 556.8C800 560.3 850 544.7 875 536.8L900 529L900 601L875 601C850 601 800 601 750 601C700 601 650 601 600 601C550 601 500 601 450 601C400 601 350 601 300 601C250 601 200 601 150 601C100 601 50 601 25 601L0 601Z" fill="#d3d3f9"></path></svg>