<svg id="visual" viewBox="0 0 450 900" width="450" height="900" xmlns="http://www.w3.org/2000/svg" xmlns:xlink="http://www.w3.org/1999/xlink" version="1.1"><rect x="0" y="0" width="450" height="900" fill="#001220"></rect><path d="M0 577L10.7 569.7C21.3 562.3 42.7 547.7 64.2 547.3C85.7 547 107.3 561 128.8 576.7C150.3 592.3 171.7 609.7 193 618.3C214.3 627 235.7 627 257 634C278.3 641 299.7 655 321.2 647.8C342.7 640.7 364.3 612.3 385.8 605.7C407.3 599 428.7 614 439.3 621.5L450 629L450 901L439.3 901C428.7 901 407.3 901 385.8 901C364.3 901 342.7 901 321.2 901C299.7 901 278.3 901 257 901C235.7 901 214.3 901 193 901C171.7 901 150.3 901 128.8 901C107.3 901 85.7 901 64.2 901C42.7 901 21.3 901 10.7 901L0 901Z" fill="#fa7268"></path><path d="M0 639L10.7 639.3C21.3 639.7 42.7 640.3 64.2 645.2C85.7 650 107.3 659 128.8 666.5C150.3 674 171.7 680 193 674.7C214.3 669.3 235.7 652.7 257 643C278.3 633.3 299.7 630.7 321.2 629C342.7 627.3 364.3 626.7 385.8 630.5C407.3 634.3 428.7 642.7 439.3 646.8L450 651L450 901L439.3 901C428.7 901 407.3 901 385.8 901C364.3 901 342.7 901 321.2 901C299.7 901 278.3 901 257 901C235.7 901 214.3 901 193 901C171.7 901 150.3 901 128.8 901C107.3 901 85.7 901 64.2 901C42.7 901 21.3 901 10.7 901L0 901Z" fill="#ef5f67"></path><path d="M0 678L10.7 679.8C21.3 681.7 42.7 685.3 64.2 690C85.7 694.7 107.3 700.3 128.8 705.5C150.3 710.7 171.7 715.3 193 721.5C214.3 727.7 235.7 735.3 257 734.5C278.3 733.7 299.7 724.3 321.2 726.7C342.7 729 364.3 743 385.8 750.3C407.3 757.7 428.7 758.3 439.3 758.7L450 759L450 901L439.3 901C428.7 901 407.3 901 385.8 901C364.3 901 342.7 901 321.2 901C299.7 901 278.3 901 257 901C235.7 901 214.3 901 193 901C171.7 901 150.3 901 128.8 901C107.3 901 85.7 901 64.2 901C42.7 901 21.3 901 10.7 901L0 901Z" fill="#e34c67"></path><path d="M0 795L10.7 794.7C21.3 794.3 42.7 793.7 64.2 790.8C85.7 788 107.3 783 128.8 782.7C150.3 782.3 171.7 786.7 193 780.7C214.3 774.7 235.7 758.3 257 752C278.3 745.7 299.7 749.3 321.2 756.5C342.7 763.7 364.3 774.3 385.8 778.7C407.3 783 428.7 781 439.3 780L450 779L450 901L439.3 901C428.7 901 407.3 901 385.8 901C364.3 901 342.7 901 321.2 901C299.7 901 278.3 901 257 901C235.7 901 214.3 901 193 901C171.7 901 150.3 901 128.8 901C107.3 901 85.7 901 64.2 901C42.7 901 21.3 901 10.7 901L0 901Z" fill="#d53867"></path><path d="M0 850L10.7 848.5C21.3 847 42.7 844 64.2 841.3C85.7 838.7 107.3 836.3 128.8 839.7C150.3 843 171.7 852 193 848.2C214.3 844.3 235.7 827.7 257 822C278.3 816.3 299.7 821.7 321.2 821.2C342.7 820.7 364.3 814.3 385.8 808.3C407.3 802.3 428.7 796.7 439.3 793.8L450 791L450 901L439.3 901C428.7 901 407.3 901 385.8 901C364.3 901 342.7 901 321.2 901C299.7 901 278.3 901 257 901C235.7 901 214.3 901 193 901C171.7 901 150.3 901 128.8 901C107.3 901 85.7 901 64.2 901C42.7 901 21.3 901 10.7 901L0 901Z" fill="#c62368"></path></svg>